{
	"asset":{
		"generator":"Khronos glTF Blender I/O v5.0.21",
		"version":"2.0"
	},
	"extensionsUsed":[
		"KHR_materials_specular",
		"KHR_materials_ior"
	],
	"scene":0,
	"scenes":[
		{
			"name":"Scene",
			"nodes":[
				0
			]
		}
	],
	"nodes":[
		{
			"mesh":0,
			"name":"Building 2q^[~i",
			"translation":[
				-55.207645416259766,
				129.28945922851562,
				-66.38883972167969
			]
		}
	],
	"materials":[
		{
			"doubleSided":true,
			"extensions":{
				"KHR_materials_specular":{
					"specularFactor":0
				},
				"KHR_materials_ior":{
					"ior":1
				}
			},
			"name":"GLASS_0.001",
			"pbrMetallicRoughness":{
				"metallicFactor":0,
				"roughnessFactor":0.696426510810852
			}
		},
		{
			"doubleSided":true,
			"extensions":{
				"KHR_materials_specular":{
					"specularFactor":0
				},
				"KHR_materials_ior":{
					"ior":1
				}
			},
			"name":"PLASTIC_0.001",
			"pbrMetallicRoughness":{
				"metallicFactor":0,
				"roughnessFactor":0.696426510810852
			}
		},
		{
			"doubleSided":true,
			"extensions":{
				"KHR_materials_specular":{
					"specularFactor":0
				},
				"KHR_materials_ior":{
					"ior":1
				}
			},
			"name":"BUILDING_DEFAULT_0.001",
			"pbrMetallicRoughness":{
				"metallicFactor":0,
				"roughnessFactor":0.696426510810852
			}
		},
		{
			"doubleSided":true,
			"extensions":{
				"KHR_materials_specular":{
					"specularFactor":0
				},
				"KHR_materials_ior":{
					"ior":1
				}
			},
			"name":"ROOF_DEFAULT_0.001",
			"pbrMetallicRoughness":{
				"metallicFactor":0,
				"roughnessFactor":0.696426510810852
			}
		},
		{
			"doubleSided":true,
			"extensions":{
				"KHR_materials_specular":{
					"specularFactor":0
				},
				"KHR_materials_ior":{
					"ior":1
				}
			},
			"name":"MAT_2_0.001",
			"pbrMetallicRoughness":{
				"metallicFactor":0,
				"roughnessFactor":0.696426510810852
			}
		},
		{
			"doubleSided":true,
			"extensions":{
				"KHR_materials_specular":{
					"specularFactor":0
				},
				"KHR_materials_ior":{
					"ior":1
				}
			},
			"name":"MAT_3_0.001",
			"pbrMetallicRoughness":{
				"metallicFactor":0,
				"roughnessFactor":0.696426510810852
			}
		},
		{
			"doubleSided":true,
			"extensions":{
				"KHR_materials_specular":{
					"specularFactor":0
				},
				"KHR_materials_ior":{
					"ior":1
				}
			},
			"name":"CONCRETE_0.001",
			"pbrMetallicRoughness":{
				"metallicFactor":0,
				"roughnessFactor":0.696426510810852
			}
		},
		{
			"doubleSided":true,
			"extensions":{
				"KHR_materials_specular":{
					"specularFactor":0
				},
				"KHR_materials_ior":{
					"ior":1
				}
			},
			"name":"MAT_4_0.001",
			"pbrMetallicRoughness":{
				"metallicFactor":0,
				"roughnessFactor":0.696426510810852
			}
		},
		{
			"doubleSided":true,
			"extensions":{
				"KHR_materials_specular":{
					"specularFactor":0
				},
				"KHR_materials_ior":{
					"ior":1
				}
			},
			"name":"MAT_5_0.001",
			"pbrMetallicRoughness":{
				"metallicFactor":0,
				"roughnessFactor":0.696426510810852
			}
		},
		{
			"doubleSided":true,
			"extensions":{
				"KHR_materials_specular":{
					"specularFactor":0
				},
				"KHR_materials_ior":{
					"ior":1
				}
			},
			"name":"ENTRANCE_DEFAULT_0.001",
			"pbrMetallicRoughness":{
				"metallicFactor":0,
				"roughnessFactor":0.696426510810852
			}
		}
	],
	"meshes":[
		{
			"name":"Building 2q^[~i.001",
			"primitives":[
				{
					"attributes":{
						"POSITION":0,
						"NORMAL":1,
						"TEXCOORD_0":2
					},
					"indices":3,
					"material":0
				},
				{
					"attributes":{
						"POSITION":4,
						"NORMAL":5,
						"TEXCOORD_0":6
					},
					"indices":7,
					"material":1
				},
				{
					"attributes":{
						"POSITION":8,
						"NORMAL":9,
						"TEXCOORD_0":10
					},
					"indices":11,
					"material":2
				},
				{
					"attributes":{
						"POSITION":12,
						"NORMAL":13,
						"TEXCOORD_0":14
					},
					"indices":15,
					"material":3
				},
				{
					"attributes":{
						"POSITION":16,
						"NORMAL":17,
						"TEXCOORD_0":18
					},
					"indices":19,
					"material":4
				},
				{
					"attributes":{
						"POSITION":20,
						"NORMAL":21,
						"TEXCOORD_0":22
					},
					"indices":23,
					"material":5
				},
				{
					"attributes":{
						"POSITION":24,
						"NORMAL":25,
						"TEXCOORD_0":26
					},
					"indices":27,
					"material":6
				},
				{
					"attributes":{
						"POSITION":28,
						"NORMAL":29,
						"TEXCOORD_0":30
					},
					"indices":31,
					"material":7
				},
				{
					"attributes":{
						"POSITION":32,
						"NORMAL":33,
						"TEXCOORD_0":34
					},
					"indices":35,
					"material":8
				},
				{
					"attributes":{
						"POSITION":36,
						"NORMAL":37,
						"TEXCOORD_0":38
					},
					"indices":39,
					"material":9
				}
			]
		}
	],
	"accessors":[
		{
			"bufferView":0,
			"componentType":5126,
			"count":39072,
			"max":[
				400.1357421875,
				-101.70680236816406,
				475.86712646484375
			],
			"min":[
				-176.7105255126953,
				-115.41787719726562,
				-461.75457763671875
			],
			"type":"VEC3"
		},
		{
			"bufferView":1,
			"componentType":5126,
			"count":39072,
			"type":"VEC3"
		},
		{
			"bufferView":2,
			"componentType":5126,
			"count":39072,
			"type":"VEC2"
		},
		{
			"bufferView":3,
			"componentType":5123,
			"count":51000,
			"type":"SCALAR"
		},
		{
			"bufferView":4,
			"componentType":5126,
			"count":90019,
			"max":[
				400.17498779296875,
				-101.6872787475586,
				475.9182434082031
			],
			"min":[
				-176.7628631591797,
				-115.4374008178711,
				-461.80694580078125
			],
			"type":"VEC3"
		},
		{
			"bufferView":5,
			"componentType":5126,
			"count":90019,
			"type":"VEC3"
		},
		{
			"bufferView":6,
			"componentType":5126,
			"count":90019,
			"type":"VEC2"
		},
		{
			"bufferView":7,
			"componentType":5125,
			"count":96138,
			"type":"SCALAR"
		},
		{
			"bufferView":8,
			"componentType":5126,
			"count":53144,
			"max":[
				400.714599609375,
				-101.1872787475586,
				476.216064453125
			],
			"min":[
				-511.285400390625,
				-116.1874008178711,
				-794.0578002929688
			],
			"type":"VEC3"
		},
		{
			"bufferView":9,
			"componentType":5126,
			"count":53144,
			"type":"VEC3"
		},
		{
			"bufferView":10,
			"componentType":5126,
			"count":53144,
			"type":"VEC2"
		},
		{
			"bufferView":11,
			"componentType":5123,
			"count":74163,
			"type":"SCALAR"
		},
		{
			"bufferView":12,
			"componentType":5126,
			"count":565,
			"max":[
				400.714599609375,
				-101.1872787475586,
				476.216064453125
			],
			"min":[
				-511.285400390625,
				-111.18734741210938,
				-794.0578002929688
			],
			"type":"VEC3"
		},
		{
			"bufferView":13,
			"componentType":5126,
			"count":565,
			"type":"VEC3"
		},
		{
			"bufferView":14,
			"componentType":5126,
			"count":565,
			"type":"VEC2"
		},
		{
			"bufferView":15,
			"componentType":5123,
			"count":1467,
			"type":"SCALAR"
		},
		{
			"bufferView":16,
			"componentType":5126,
			"count":96,
			"max":[
				131.33560180664062,
				-108.68731689453125,
				294.72906494140625
			],
			"min":[
				34.5003662109375,
				-108.68734741210938,
				199.80792236328125
			],
			"type":"VEC3"
		},
		{
			"bufferView":17,
			"componentType":5126,
			"count":96,
			"type":"VEC3"
		},
		{
			"bufferView":18,
			"componentType":5126,
			"count":96,
			"type":"VEC2"
		},
		{
			"bufferView":19,
			"componentType":5123,
			"count":270,
			"type":"SCALAR"
		},
		{
			"bufferView":20,
			"componentType":5126,
			"count":1525,
			"max":[
				400.714599609375,
				-111.18731689453125,
				250.04705810546875
			],
			"min":[
				361.63458251953125,
				-116.18733215332031,
				191.4840850830078
			],
			"type":"VEC3"
		},
		{
			"bufferView":21,
			"componentType":5126,
			"count":1525,
			"type":"VEC3"
		},
		{
			"bufferView":22,
			"componentType":5126,
			"count":1525,
			"type":"VEC2"
		},
		{
			"bufferView":23,
			"componentType":5123,
			"count":1893,
			"type":"SCALAR"
		},
		{
			"bufferView":24,
			"componentType":5126,
			"count":22,
			"max":[
				400.714599609375,
				-111.18731689453125,
				250.04705810546875
			],
			"min":[
				361.63458251953125,
				-111.18733215332031,
				191.4840850830078
			],
			"type":"VEC3"
		},
		{
			"bufferView":25,
			"componentType":5126,
			"count":22,
			"type":"VEC3"
		},
		{
			"bufferView":26,
			"componentType":5126,
			"count":22,
			"type":"VEC2"
		},
		{
			"bufferView":27,
			"componentType":5123,
			"count":60,
			"type":"SCALAR"
		},
		{
			"bufferView":28,
			"componentType":5126,
			"count":32,
			"max":[
				143.18258666992188,
				-108.68733215332031,
				315.3560791015625
			],
			"min":[
				70.87486267089844,
				-108.6873550415039,
				262.3720703125
			],
			"type":"VEC3"
		},
		{
			"bufferView":29,
			"componentType":5126,
			"count":32,
			"type":"VEC3"
		},
		{
			"bufferView":30,
			"componentType":5126,
			"count":32,
			"type":"VEC2"
		},
		{
			"bufferView":31,
			"componentType":5123,
			"count":90,
			"type":"SCALAR"
		},
		{
			"bufferView":32,
			"componentType":5126,
			"count":78,
			"max":[
				362.44061279296875,
				-106.18711853027344,
				317.3040771484375
			],
			"min":[
				-176.94140625,
				-106.1873550415039,
				-461.99188232421875
			],
			"type":"VEC3"
		},
		{
			"bufferView":33,
			"componentType":5126,
			"count":78,
			"type":"VEC3"
		},
		{
			"bufferView":34,
			"componentType":5126,
			"count":78,
			"type":"VEC2"
		},
		{
			"bufferView":35,
			"componentType":5123,
			"count":204,
			"type":"SCALAR"
		},
		{
			"bufferView":36,
			"componentType":5126,
			"count":14,
			"max":[
				-47.888832092285156,
				-114.18719482421875,
				90.66813659667969
			],
			"min":[
				-196.20823669433594,
				-116.18728637695312,
				-212.98043823242188
			],
			"type":"VEC3"
		},
		{
			"bufferView":37,
			"componentType":5126,
			"count":14,
			"type":"VEC3"
		},
		{
			"bufferView":38,
			"componentType":5126,
			"count":14,
			"type":"VEC2"
		},
		{
			"bufferView":39,
			"componentType":5123,
			"count":18,
			"type":"SCALAR"
		}
	],
	"bufferViews":[
		{
			"buffer":0,
			"byteLength":468864,
			"byteOffset":0,
			"target":34962
		},
		{
			"buffer":0,
			"byteLength":468864,
			"byteOffset":468864,
			"target":34962
		},
		{
			"buffer":0,
			"byteLength":312576,
			"byteOffset":937728,
			"target":34962
		},
		{
			"buffer":0,
			"byteLength":102000,
			"byteOffset":1250304,
			"target":34963
		},
		{
			"buffer":0,
			"byteLength":1080228,
			"byteOffset":1352304,
			"target":34962
		},
		{
			"buffer":0,
			"byteLength":1080228,
			"byteOffset":2432532,
			"target":34962
		},
		{
			"buffer":0,
			"byteLength":720152,
			"byteOffset":3512760,
			"target":34962
		},
		{
			"buffer":0,
			"byteLength":384552,
			"byteOffset":4232912,
			"target":34963
		},
		{
			"buffer":0,
			"byteLength":637728,
			"byteOffset":4617464,
			"target":34962
		},
		{
			"buffer":0,
			"byteLength":637728,
			"byteOffset":5255192,
			"target":34962
		},
		{
			"buffer":0,
			"byteLength":425152,
			"byteOffset":5892920,
			"target":34962
		},
		{
			"buffer":0,
			"byteLength":148326,
			"byteOffset":6318072,
			"target":34963
		},
		{
			"buffer":0,
			"byteLength":6780,
			"byteOffset":6466400,
			"target":34962
		},
		{
			"buffer":0,
			"byteLength":6780,
			"byteOffset":6473180,
			"target":34962
		},
		{
			"buffer":0,
			"byteLength":4520,
			"byteOffset":6479960,
			"target":34962
		},
		{
			"buffer":0,
			"byteLength":2934,
			"byteOffset":6484480,
			"target":34963
		},
		{
			"buffer":0,
			"byteLength":1152,
			"byteOffset":6487416,
			"target":34962
		},
		{
			"buffer":0,
			"byteLength":1152,
			"byteOffset":6488568,
			"target":34962
		},
		{
			"buffer":0,
			"byteLength":768,
			"byteOffset":6489720,
			"target":34962
		},
		{
			"buffer":0,
			"byteLength":540,
			"byteOffset":6490488,
			"target":34963
		},
		{
			"buffer":0,
			"byteLength":18300,
			"byteOffset":6491028,
			"target":34962
		},
		{
			"buffer":0,
			"byteLength":18300,
			"byteOffset":6509328,
			"target":34962
		},
		{
			"buffer":0,
			"byteLength":12200,
			"byteOffset":6527628,
			"target":34962
		},
		{
			"buffer":0,
			"byteLength":3786,
			"byteOffset":6539828,
			"target":34963
		},
		{
			"buffer":0,
			"byteLength":264,
			"byteOffset":6543616,
			"target":34962
		},
		{
			"buffer":0,
			"byteLength":264,
			"byteOffset":6543880,
			"target":34962
		},
		{
			"buffer":0,
			"byteLength":176,
			"byteOffset":6544144,
			"target":34962
		},
		{
			"buffer":0,
			"byteLength":120,
			"byteOffset":6544320,
			"target":34963
		},
		{
			"buffer":0,
			"byteLength":384,
			"byteOffset":6544440,
			"target":34962
		},
		{
			"buffer":0,
			"byteLength":384,
			"byteOffset":6544824,
			"target":34962
		},
		{
			"buffer":0,
			"byteLength":256,
			"byteOffset":6545208,
			"target":34962
		},
		{
			"buffer":0,
			"byteLength":180,
			"byteOffset":6545464,
			"target":34963
		},
		{
			"buffer":0,
			"byteLength":936,
			"byteOffset":6545644,
			"target":34962
		},
		{
			"buffer":0,
			"byteLength":936,
			"byteOffset":6546580,
			"target":34962
		},
		{
			"buffer":0,
			"byteLength":624,
			"byteOffset":6547516,
			"target":34962
		},
		{
			"buffer":0,
			"byteLength":408,
			"byteOffset":6548140,
			"target":34963
		},
		{
			"buffer":0,
			"byteLength":168,
			"byteOffset":6548548,
			"target":34962
		},
		{
			"buffer":0,
			"byteLength":168,
			"byteOffset":6548716,
			"target":34962
		},
		{
			"buffer":0,
			"byteLength":112,
			"byteOffset":6548884,
			"target":34962
		},
		{
			"buffer":0,
			"byteLength":36,
			"byteOffset":6548996,
			"target":34963
		}
	],
	"buffers":[
		{
			"byteLength":6549032,
			"uri":"rjtt_terminal1.bin"
		}
	]
}
